Coordinates
version=1
nRows=20
nColumns=38
inDegrees=no

Units are S.I. units (second, meters, Newtons, ...)
If the header above contains a line with 'inDegrees', this indicates whether rotational values are in degrees (yes) or radians (no).

endheader
time	pelvis_tilt	pelvis_list	pelvis_rotation	pelvis_tx	pelvis_ty	pelvis_tz	hip_flexion_r	hip_adduction_r	hip_rotation_r	knee_angle_r	ankle_angle_r	subtalar_angle_r	mtp_angle_r	hip_flexion_l	hip_adduction_l	hip_rotation_l	knee_angle_l	ankle_angle_l	subtalar_angle_l	mtp_angle_l	lumbar_extension	lumbar_bending	lumbar_rotation	arm_flex_r	arm_add_r	arm_rot_r	elbow_flex_r	pro_sup_r	wrist_flex_r	wrist_dev_r	arm_flex_l	arm_add_l	arm_rot_l	elbow_flex_l	pro_sup_l	wrist_flex_l	wrist_dev_l
1.32	3.1094	1.44621	-1.58968	0.669603	0.853486	0.945865	-0.140721	0.0518298	-0.111917	0.174708	0.143096	0	0	0.361242	-0.177142	-0.308726	0.938715	0.0908089	0	0	-0.27207	-0.0576963	-0.0430935	-0.0863312	-0.242093	0.26304	0.533094	0.929856	0	0	-0.0874601	-0.377553	0.242549	0.729167	1.272	0	0
1.33	3.11365	1.44601	-1.59654	0.670034	0.862162	0.945425	-0.15833	0.0514067	-0.107934	0.161619	0.146335	0	0	0.359529	-0.17166	-0.323559	0.87753	0.0950258	0	0	-0.273197	-0.0605525	-0.042316	-0.0828094	-0.2424	0.269946	0.531214	0.926763	0	0	-0.0874736	-0.377783	0.238424	0.728696	1.2749	0	0
1.34	3.11378	1.44638	-1.59902	0.670369	0.870798	0.944745	-0.175428	0.0514605	-0.104183	0.148668	0.149856	0	0	0.356584	-0.165728	-0.339555	0.812162	0.0979142	0	0	-0.274078	-0.0627191	-0.0416107	-0.0794591	-0.2428	0.275551	0.529404	0.923046	0	0	-0.0870909	-0.378044	0.235148	0.727623	1.2767	0	0
1.35	3.11015	1.44706	-1.59723	0.670571	0.87943	0.943853	-0.19181	0.0518423	-0.100453	0.136519	0.153469	0	0	0.352276	-0.158935	-0.356265	0.742791	0.0995326	0	0	-0.274964	-0.0641697	-0.0410462	-0.0765358	-0.243144	0.279207	0.527816	0.919117	0	0	-0.0862055	-0.378367	0.233166	0.72581	1.27747	0	0
1.36	3.10013	1.4488	-1.58883	0.670632	0.887995	0.942688	-0.204471	0.052586	-0.0974181	0.127931	0.157738	0	0	0.347976	-0.151622	-0.373075	0.670659	0.100189	0	0	-0.275047	-0.0646027	-0.0402625	-0.0739136	-0.243458	0.2805	0.526287	0.916481	0	0	-0.0851324	-0.378246	0.230981	0.724096	1.27755	0	0
1.37	3.11153	1.44926	-1.60072	0.670461	0.896696	0.941427	-0.223569	0.0504425	-0.0981016	0.114161	0.165334	0	0	0.339509	-0.138605	-0.389058	0.59231	0.0975294	0	0	-0.276446	-0.0675434	-0.0413754	-0.0714596	-0.245461	0.291229	0.526922	0.892087	0	0	-0.0848448	-0.379122	0.230178	0.723662	1.26533	0	0
1.38	3.09887	1.4526	-1.58623	0.670018	0.905472	0.939644	-0.235403	0.0469643	-0.11901	0.1085	0.177853	0	0	0.33642	-0.128058	-0.40237	0.519272	0.100143	0	0	-0.274593	-0.0668036	-0.0437729	-0.0695298	-0.245924	0.291044	0.525265	0.893302	0	0	-0.0847976	-0.379126	0.227211	0.72205	1.26691	0	0
1.39	3.1001	1.45746	-1.58546	0.669297	0.913992	0.937618	-0.242473	0.0459082	-0.122405	0.105904	0.187861	0	0	0.333055	-0.112509	-0.41047	0.441961	0.100144	0	0	-0.271931	-0.0675754	-0.046682	-0.0666344	-0.246759	0.291473	0.523045	0.893648	0	0	-0.0839687	-0.378658	0.223578	0.719628	1.26795	0	0
1.4	-3.08635	1.47057	-1.6808	0.668588	0.922651	0.933969	-0.245221	0.0353781	-0.127593	0.100488	0.209305	0	0	0.336001	-0.0835702	-0.410085	0.359588	0.0984363	0	0	-0.258916	-0.0790848	-0.0507103	-0.0662266	-0.246147	0.289882	0.521874	0.894447	0	0	-0.0860192	-0.380818	0.219873	0.719618	1.26898	0	0
1.41	-3.04897	1.47366	-1.71507	0.667392	0.931307	0.931919	-0.252656	0.0298897	-0.135009	0.101674	0.22333	0	0	0.321808	-0.0560756	-0.391334	0.26591	0.0912218	0	0	-0.258207	-0.0827714	-0.0549192	-0.0636801	-0.245989	0.281714	0.518792	0.90704	0	0	-0.0845059	-0.379916	0.215225	0.715229	1.27174	0	0
1.42	-3.0276	1.47487	-1.73375	0.66614	0.940099	0.930052	-0.262491	0.0262029	-0.139872	0.102115	0.234556	0	0	0.298951	-0.0283019	-0.353159	0.163425	0.075927	0	0	-0.259398	-0.0849099	-0.0583505	-0.0615383	-0.247722	0.279283	0.517775	0.908428	0	0	-0.0827925	-0.378993	0.21254	0.71075	1.26816	0	0
1.43	-2.96273	1.47936	-1.79838	0.665123	0.94923	0.92729	-0.268228	0.0217355	-0.139356	0.101302	0.245224	0	0	0.272323	0.00127134	-0.293656	0.0518443	0.0464381	0	0	-0.25472	-0.0913969	-0.059674	-0.0615267	-0.249444	0.276447	0.517952	0.90934	0	0	-0.0832558	-0.379306	0.210801	0.70813	1.26146	0	0
1.44	-3.05961	1.47751	-1.69833	0.664358	0.958605	0.925965	-0.28962	0.0278197	-0.139942	0.0930786	0.249749	0	0	0.25156	0.005977	-0.262021	0	0.0368813	0	0	-0.260265	-0.0833045	-0.0612284	-0.0598147	-0.252036	0.276594	0.517145	0.90409	0	0	-0.0816997	-0.37659	0.202272	0.700722	1.27822	0	0
1.45	-3.06261	1.47275	-1.68904	0.663643	0.967259	0.924087	-0.300436	0.0318964	-0.141076	0.104626	0.259398	0	0	0.261726	0.0113307	-0.255186	0	0.036968	0	0	-0.268398	-0.0854302	-0.0628168	-0.0615966	-0.250955	0.262647	0.518088	0.912302	0	0	-0.0769689	-0.388513	0.242445	0.705922	1.17673	0	0
1.46	-3.07009	1.48048	-1.67861	0.662755	0.976586	0.921174	-0.290724	0.0310136	-0.16048	0.132214	0.281882	0	0	0.276882	0.0154551	-0.261767	0	0.0404122	0	0	-0.261119	-0.0859309	-0.0605662	-0.0675822	-0.252104	0.254465	0.524047	0.913868	0	0	-0.0711171	-0.401884	0.293448	0.703781	1.15037	0	0
1.47	-3.07544	1.46918	-1.67427	0.66235	0.986304	0.920407	-0.312963	0.0291762	-0.151958	0.134558	0.281725	0	0	0.266568	0.0212801	-0.270019	0	0.0339513	0	0	-0.275414	-0.0893853	-0.0623415	-0.0620412	-0.251697	0.255253	0.517607	0.909299	0	0	-0.0756876	-0.391702	0.240814	0.698776	1.17104	0	0
1.48	-3.06955	1.46562	-1.68162	0.662109	0.996696	0.918988	-0.322572	0.0255893	-0.155607	0.14731	0.290484	0	0	0.261934	0.0279129	-0.279807	0	0.0323411	0	0	-0.279338	-0.0934995	-0.0610547	-0.0617547	-0.251918	0.254108	0.515913	0.905388	0	0	-0.0776247	-0.388451	0.219537	0.692391	1.19486	0	0
1.49	-3.0599	1.46218	-1.6935	0.662148	1.00739	0.91778	-0.332579	0.0210559	-0.161227	0.160596	0.299932	0	0	0.253465	0.0350354	-0.281791	0	0.0310493	0	0	-0.281614	-0.0984199	-0.0579769	-0.0633823	-0.252013	0.252223	0.514679	0.901618	0	0	-0.0795559	-0.387167	0.207178	0.685723	1.21636	0	0
1.5	-3.13877	1.45896	-1.62249	0.662616	1.01823	0.917404	-0.372011	0.0245638	-0.176706	0.11188	0.282591	0	0	0.235992	0.0301886	-0.276582	0	0.0302117	0	0	-0.285247	-0.094264	-0.0487098	-0.062318	-0.252018	0.251372	0.511663	0.890042	0	0	-0.0791031	-0.379192	0.17292	0.669908	1.31153	0	0
1.51	-2.97376	1.46428	-1.78899	0.662461	1.0299	0.914099	-0.376499	0.00823245	-0.136326	0.116059	0.28984	0	0	0.248788	0.0494788	-0.275119	0.0206707	0.0352158	0	0	-0.272517	-0.11701	-0.047208	-0.0699767	-0.248851	0.247015	0.510832	0.891941	0	0	-0.0868624	-0.386615	0.176373	0.673399	1.29731	0	0
